<?xml version="1.0" encoding="UTF-8" standalone="no"?>
<!DOCTYPE svg PUBLIC "-//W3C//DTD SVG 1.1//EN"
 "http://www.w3.org/Graphics/SVG/1.1/DTD/svg11.dtd">
<!-- Generated by graphviz version 2.47.0 (20210316.0004)
 -->
<!-- Title: dependencies Pages: 1 -->
<svg width="504pt" height="287pt"
 viewBox="0.00 0.00 504.00 287.00" xmlns="http://www.w3.org/2000/svg" xmlns:xlink="http://www.w3.org/1999/xlink">
<g id="graph0" class="graph" transform="scale(1 1) rotate(0) translate(4 283)">
<title>dependencies</title>
<polygon fill="white" stroke="transparent" points="-4,4 -4,-283 500,-283 500,4 -4,4"/>
<text text-anchor="start" x="227.01" y="-42.4" font-family="Times-12" font-weight="bold" font-size="14.00">Legend</text>
<polygon fill="#ffffb3" stroke="transparent" points="14,-10 14,-30 34,-30 34,-10 14,-10"/>
<text text-anchor="start" x="37.63" y="-15.4" font-family="Times-12" font-size="14.00"> &#160;Declarations</text>
<polygon fill="#8dd3c7" stroke="transparent" points="127,-10 127,-30 147,-30 147,-10 127,-10"/>
<text text-anchor="start" x="150.73" y="-15.4" font-family="Times-12" font-size="14.00"> &#160;Module</text>
<polygon fill="#80b1d3" stroke="transparent" points="213,-10 213,-30 233,-30 233,-10 213,-10"/>
<text text-anchor="start" x="236.78" y="-15.4" font-family="Times-12" font-size="14.00"> &#160;Bootstrap</text>
<polygon fill="#fdb462" stroke="transparent" points="310,-10 310,-30 330,-30 330,-10 310,-10"/>
<text text-anchor="start" x="333.67" y="-15.4" font-family="Times-12" font-size="14.00"> &#160;Providers</text>
<polygon fill="#fb8072" stroke="transparent" points="406,-10 406,-30 426,-30 426,-10 406,-10"/>
<text text-anchor="start" x="429.73" y="-15.4" font-family="Times-12" font-size="14.00"> &#160;Exports</text>
<g id="clust1" class="cluster">
<title>cluster_AppModule</title>
<polygon fill="none" stroke="black" stroke-dasharray="1,5" points="35,-146 35,-271 416,-271 416,-146 35,-146"/>
</g>
<g id="clust3" class="cluster">
<title>cluster_AppModule_imports</title>
<polygon fill="none" stroke="black" points="181,-154 181,-206 408,-206 408,-154 181,-154"/>
</g>
<g id="clust6" class="cluster">
<title>cluster_AppModule_providers</title>
<polygon fill="none" stroke="black" points="43,-154 43,-206 173,-206 173,-154 43,-154"/>
</g>
<g id="clust7" class="cluster">
<title>cluster_BrandsModule</title>
<polygon fill="none" stroke="black" stroke-dasharray="1,5" points="127,-70 127,-138 293,-138 293,-70 127,-70"/>
</g>
<g id="clust12" class="cluster">
<title>cluster_BrandsModule_providers</title>
<polygon fill="none" stroke="black" points="135,-78 135,-130 285,-130 285,-78 135,-78"/>
</g>
<g id="clust13" class="cluster">
<title>cluster_SeriesModule</title>
<polygon fill="none" stroke="black" stroke-dasharray="1,5" points="301,-70 301,-138 461,-138 461,-70 301,-70"/>
</g>
<g id="clust18" class="cluster">
<title>cluster_SeriesModule_providers</title>
<polygon fill="none" stroke="black" points="309,-78 309,-130 453,-130 453,-78 309,-78"/>
</g>
<!-- BrandsModule -->
<g id="node1" class="node">
<title>BrandsModule</title>
<polygon fill="#8dd3c7" stroke="black" points="288.71,-198 285.71,-202 264.71,-202 261.71,-198 189.29,-198 189.29,-162 288.71,-162 288.71,-198"/>
<text text-anchor="middle" x="239" y="-175.8" font-family="Times,serif" font-size="14.00">BrandsModule</text>
</g>
<!-- AppModule -->
<g id="node3" class="node">
<title>AppModule</title>
<polygon fill="#8dd3c7" stroke="black" points="280.66,-263 277.66,-267 256.66,-267 253.66,-263 197.34,-263 197.34,-227 280.66,-227 280.66,-263"/>
<text text-anchor="middle" x="239" y="-240.8" font-family="Times,serif" font-size="14.00">AppModule</text>
</g>
<!-- BrandsModule&#45;&gt;AppModule -->
<g id="edge1" class="edge">
<title>BrandsModule&#45;&gt;AppModule</title>
<path fill="none" stroke="black" d="M239,-198.11C239,-198.11 239,-216.99 239,-216.99"/>
<polygon fill="black" stroke="black" points="235.5,-216.99 239,-226.99 242.5,-216.99 235.5,-216.99"/>
</g>
<!-- SeriesModule -->
<g id="node2" class="node">
<title>SeriesModule</title>
<polygon fill="#8dd3c7" stroke="black" points="399.76,-198 396.76,-202 375.76,-202 372.76,-198 306.24,-198 306.24,-162 399.76,-162 399.76,-198"/>
<text text-anchor="middle" x="353" y="-175.8" font-family="Times,serif" font-size="14.00">SeriesModule</text>
</g>
<!-- SeriesModule&#45;&gt;AppModule -->
<g id="edge2" class="edge">
<title>SeriesModule&#45;&gt;AppModule</title>
<path fill="none" stroke="black" d="M353,-198.11C353,-217.34 353,-245 353,-245 353,-245 290.8,-245 290.8,-245"/>
<polygon fill="black" stroke="black" points="290.8,-241.5 280.8,-245 290.8,-248.5 290.8,-241.5"/>
</g>
<!-- AppService -->
<g id="node4" class="node">
<title>AppService</title>
<ellipse fill="#fdb462" stroke="black" cx="108" cy="-180" rx="56.74" ry="18"/>
<text text-anchor="middle" x="108" y="-175.8" font-family="Times,serif" font-size="14.00">AppService</text>
</g>
<!-- AppService&#45;&gt;AppModule -->
<g id="edge3" class="edge">
<title>AppService&#45;&gt;AppModule</title>
<path fill="none" stroke="black" d="M108,-198.11C108,-217.34 108,-245 108,-245 108,-245 187.19,-245 187.19,-245"/>
<polygon fill="black" stroke="black" points="187.19,-248.5 197.19,-245 187.19,-241.5 187.19,-248.5"/>
</g>
<!-- BrandsService -->
<g id="node5" class="node">
<title>BrandsService</title>
<ellipse fill="#fdb462" stroke="black" cx="210" cy="-104" rx="67.19" ry="18"/>
<text text-anchor="middle" x="210" y="-99.8" font-family="Times,serif" font-size="14.00">BrandsService</text>
</g>
<!-- BrandsService&#45;&gt;BrandsModule -->
<g id="edge4" class="edge">
<title>BrandsService&#45;&gt;BrandsModule</title>
<path fill="none" stroke="black" d="M233.37,-121.25C233.37,-121.25 233.37,-151.76 233.37,-151.76"/>
<polygon fill="black" stroke="black" points="229.87,-151.76 233.37,-161.76 236.87,-151.76 229.87,-151.76"/>
</g>
<!-- SeriesService -->
<g id="node6" class="node">
<title>SeriesService</title>
<ellipse fill="#fdb462" stroke="black" cx="381" cy="-104" rx="63.68" ry="18"/>
<text text-anchor="middle" x="381" y="-99.8" font-family="Times,serif" font-size="14.00">SeriesService</text>
</g>
<!-- SeriesService&#45;&gt;SeriesModule -->
<g id="edge5" class="edge">
<title>SeriesService&#45;&gt;SeriesModule</title>
<path fill="none" stroke="black" d="M358.65,-120.87C358.65,-120.87 358.65,-151.85 358.65,-151.85"/>
<polygon fill="black" stroke="black" points="355.15,-151.85 358.65,-161.85 362.15,-151.85 355.15,-151.85"/>
</g>
</g>
</svg>
